HIERARCHY
ROOT pelvis
{
  OFFSET 0 100 0
  CHANNELS 6 Xposition Yposition Zposition Zrotation Xrotation Yrotation
  JOINT pelvis_right_femur
  {
    OFFSET -10.78128 -3.44521 -0.5502486
    CHANNELS 3 Zrotation Xrotation Yrotation
    JOINT right_femur_tibia
    {
      OFFSET -0.8047443 -44.0398 -0.1307829
      CHANNELS 3 Zrotation Xrotation Yrotation
      JOINT right_tibia_foot
      {
        OFFSET 3.006224 -47.83518 -5
        CHANNELS 3 Zrotation Xrotation Yrotation
        End Site
        {
          OFFSET 0 -5 15
        }
      }
    }
  }
  JOINT pelvis_left_femur
  {
    OFFSET 10.78128 -3.44521 -0.5502486
    CHANNELS 3 Zrotation Xrotation Yrotation
    JOINT left_femur_tibia
    {
      OFFSET 0.8047443 -44.0398 -0.1307829
      CHANNELS 3 Zrotation Xrotation Yrotation
      JOINT left_tibia_foot
      {
        OFFSET -4.370144 -48.10324 -4.275266
        CHANNELS 3 Zrotation Xrotation Yrotation
        End Site
        {
          OFFSET 0 -5 15
        }
      }
    }
  }
  JOINT pelvis_spine1
  {
    OFFSET 0 6.468898 -3.129235
    CHANNELS 3 Zrotation Xrotation Yrotation
    JOINT spine1
    {
      OFFSET 0 23.15396 4.99043
      CHANNELS 3 Zrotation Xrotation Yrotation
      JOINT spine2
      {
        OFFSET 0 20.79997 -5.064912
        CHANNELS 3 Zrotation Xrotation Yrotation
        JOINT neck
        {
          OFFSET 0 14.38658 9.616178
          CHANNELS 3 Zrotation Xrotation Yrotation
          End Site
          {
            OFFSET 0 20 0
          }
        }
      }
      JOINT right_manubrium
      {
        OFFSET -5.722621 16.35077 3.967754
        CHANNELS 3 Zrotation Xrotation Yrotation
        JOINT right_clavicle
        {
          OFFSET -13.16364 1.694482 -4.693211
          CHANNELS 3 Zrotation Xrotation Yrotation
          JOINT right_humerus
          {
            OFFSET -28.5034 -0.3100689 -2.792744
            CHANNELS 3 Zrotation Xrotation Yrotation
            JOINT right_radius
            {
              OFFSET -25.15693 0.02248979 -1.271978
              CHANNELS 3 Zrotation Xrotation Yrotation
              End Site
              {
                OFFSET -15 0 0
              }
            }
          }
        }
      }
      JOINT left_manubrium
      {
        OFFSET 5.722621 16.35077 3.967754
        CHANNELS 3 Zrotation Xrotation Yrotation
        JOINT left_clavicle
        {
          OFFSET 13.16364 1.694482 -4.693211
          CHANNELS 3 Zrotation Xrotation Yrotation
          JOINT left_humerus
          {
            OFFSET 29.39168 -1.063119 -2.237045
            CHANNELS 3 Zrotation Xrotation Yrotation
            JOINT left_radius
            {
              OFFSET 24.59957 -0.9528479 0.9047498
              CHANNELS 3 Zrotation Xrotation Yrotation
              End Site
              {
                OFFSET 15 -0 -0
              }
            }
          }
        }
      }
    }
  }
}
MOTION
Frames: 19
Frame Time: 0.0416666666667
-1360.896 98.80733 59.99758 0.675075 4.115536 171.1181 4.63515 -23.94391 -5.538371 -0 5.76179 -0 -11.41146 7.968909 0.8143935 -5.793517 15.20408 -6.869051 -0 27.38805 -0 5.020494 -16.61782 16.26725 -0.144324 -4.099822 3.569053 1.403778 13.7614 -8.278023 0.9589306 22.5172 6.582388 2.496471 -23.2274 7.907355 -4.151583 -19.84719 11.66374 98.49193 17.54746 -26.47359 -0 0 2.713984 -21.92299 8.930619 9.008149 7.183038 -29.7676 -6.800351 -83.74803 12.2582 9.716838 0 0 -34.88355 17.82758 14.15631 -7.952805
-1359.506 98.98809 53.38617 1.285582 5.106815 171.0732 5.715504 -21.8552 -4.824726 -0 6.9805 -0 -12.14299 7.127293 -0.450861 -4.980629 15.00147 -6.540984 -0 34.08546 -0 3.072784 -14.54324 15.33042 0.580104 -4.162767 3.25553 1.34508 13.80874 -8.4185 1.156431 22.85563 6.053444 2.277898 -22.46135 7.478883 -4.572221 -19.57875 11.61425 99.00747 16.49805 -26.62229 -0 0 2.678929 -22.24647 9.257656 8.876527 6.239675 -29.31705 -7.466772 -84.12156 13.81749 10.31401 0 0 -33.6186 15.09118 15.36316 -4.912127
-1358.019 99.71418 46.90674 1.94978 5.957427 170.7085 6.868645 -19.14006 -3.307681 -0 8.745487 -0 -12.72571 5.838657 -1.784207 -4.014674 13.1442 -6.545087 -0 42.57991 -0 1.805833 -11.62516 14.9133 1.226305 -4.053145 3.30495 1.367609 14.10237 -8.507392 1.470168 22.95636 5.424105 2.089952 -22.02558 7.139026 -4.624562 -19.58724 11.70569 99.05264 16.29559 -26.3782 -0 0 3.477904 -22.16576 9.799302 8.760958 5.156993 -28.48868 -7.937484 -84.91347 14.96863 11.94874 0 0 -31.14157 12.77108 16.02556 -2.140446
-1356.477 100.8727 40.65664 2.430284 6.866982 170.0559 7.641797 -15.70117 -1.778331 -0 9.860314 -0 -13.18959 4.457964 -2.965357 -3.085017 9.824828 -6.434276 -0 50.89114 -0 1.207744 -8.61588 14.74972 1.649778 -3.808711 3.722952 1.308114 14.63642 -8.438373 1.82172 22.90501 4.716126 1.886489 -21.63133 6.780644 -4.645224 -19.96425 11.89607 98.90499 16.33196 -25.7445 -0 0 4.809455 -22.14493 10.48528 8.876181 4.066014 -27.66361 -8.411603 -85.73447 15.55744 14.13838 0 0 -28.67602 10.8449 16.28733 0.3649055
-1354.924 102.269 34.69723 2.702711 7.82294 169.1991 7.950209 -11.59408 -0.6291872 -0 10.20272 -0 -13.5012 2.785796 -3.81662 -2.192112 5.351924 -6.146532 -0 57.14845 -0 0.9329479 -6.059283 14.62868 1.832029 -3.421752 4.370569 1.122405 15.20274 -8.149757 2.11931 22.79602 4.022205 1.670158 -21.16701 6.391182 -4.664442 -20.65678 12.13481 98.45845 16.33479 -24.60146 -0 0 6.636791 -22.22619 11.28105 9.214568 3.155196 -26.87805 -8.831374 -86.61348 15.88556 16.62308 0 0 -26.30788 9.246809 16.38558 2.538786
-1353.406 103.6773 29.04938 2.820664 8.729142 168.2529 7.902567 -6.887524 -0.01260473 -0 9.957616 -0 -13.59092 0.6815672 -4.233905 -1.270384 0.01384076 -5.705062 -0 60.12187 -0 0.6818945 -4.227964 14.51757 1.809286 -2.919751 5.102068 0.8366063 15.60755 -7.637415 2.300199 22.6935 3.423352 1.454124 -20.65622 5.992904 -4.638195 -21.60792 12.37167 97.56144 16.2076 -22.85386 -0 0 8.995917 -22.40535 12.1455 9.762359 2.56502 -26.0653 -9.064338 -87.70825 16.20914 19.28995 0 0 -23.7753 7.881047 16.44879 4.333252
-1351.972 104.8699 23.67537 2.851206 9.473445 167.3352 7.661411 -1.753195 0.1185871 -0 9.440765 -0 -13.40741 -1.812316 -4.263642 -0.222802 -5.819014 -5.083759 -0 58.89802 -0 0.4249996 -3.174536 14.4812 1.646253 -2.384125 5.792777 0.4952907 15.75815 -6.9615 2.346396 22.58252 2.930718 1.208988 -20.1512 5.598827 -4.565138 -22.83343 12.55093 96.20037 15.9646 -20.46119 -0 0 11.91849 -22.73438 13.03894 10.60768 2.280795 -25.17048 -9.054089 -89.02716 16.56124 22.1171 0 0 -21.06336 6.564444 16.46743 5.921589
-1350.671 105.648 18.46916 2.886913 9.916429 166.5353 7.379628 3.466688 -0.09432213 -0 9.08229 -0 -12.94184 -4.651556 -4.014881 1.065495 -11.56091 -4.263719 -0 52.80744 -0 0.2079438 -2.809721 14.48761 1.455452 -1.921154 6.312072 0.1592472 15.60706 -6.230987 2.261669 22.38893 2.522649 0.8790955 -19.71911 5.223939 -4.468106 -24.36582 12.60553 94.45966 15.62787 -17.46683 -0 0 15.41877 -23.23578 13.93763 11.85728 2.178944 -24.14141 -8.809868 -90.47288 16.92095 25.13526 0 0 -18.32445 5.061441 16.37865 7.627988
-1349.537 105.8982 13.26314 3.038441 9.91378 165.8858 7.18119 8.255231 -0.4948864 -0 9.25088 -0 -12.22434 -7.770937 -3.566178 2.603824 -16.33919 -3.334538 -0 42.21476 -0 -0.02880439 -2.917249 14.39127 1.378161 -1.650752 6.543291 -0.07890866 15.14875 -5.59963 2.061801 22.04194 2.196039 0.4389389 -19.45975 4.909465 -4.35317 -26.1315 12.47638 92.5151 15.19816 -14.14826 -0 0 19.33941 -23.8306 14.8217 13.47434 2.128086 -22.96605 -8.357053 -91.94513 17.30025 28.29362 0 0 -15.68875 3.281638 16.12783 9.59957
-1348.569 105.6463 7.883393 3.361754 9.478498 165.351 7.130374 12.11336 -0.8834516 -0 9.954658 -0 -11.32057 -10.80407 -2.991583 4.113834 -19.2805 -2.556813 -0 29.57254 -0 -0.3373625 -3.156663 14.19569 1.487257 -1.683001 6.496657 -0.1308998 14.54776 -5.224193 1.807473 21.54446 1.953246 -0.06424292 -19.45645 4.719319 -4.212296 -27.89961 12.18151 90.69902 14.71002 -11.10407 -0 0 23.17966 -24.3723 15.63884 15.15807 2.078035 -21.76856 -7.747501 -93.35572 17.56141 31.31588 0 0 -13.14427 1.600562 15.74767 11.36315
-1347.726 105.0382 2.248178 3.768405 8.874109 164.8516 7.17075 14.88898 -1.030509 -0 10.77905 -0 -10.32228 -13.04343 -2.406678 5.080905 -20.17937 -2.273527 -0 18.68442 -0 -0.5817847 -3.23943 14.25496 1.689773 -2.030621 6.371207 0.007015128 14.13117 -5.147667 1.611664 21.01198 1.776212 -0.5166422 -19.7106 4.707126 -4.04075 -29.37743 11.85557 89.38774 14.28817 -8.961882 -0 0 26.25538 -24.74369 16.2482 16.44063 2.108718 -20.77471 -7.069335 -94.61843 17.34827 33.74802 0 0 -10.48522 0.8062339 15.42467 11.90081
-1346.961 104.2525 -3.593123 4.079728 8.383791 164.3153 7.144692 16.75533 -0.8283234 -0 11.40394 -0 -9.346226 -14.01056 -1.906177 5.192647 -19.67756 -2.627641 -0 11.85892 -0 -0.5231006 -3.131613 14.90223 1.810185 -2.56894 6.382011 0.2390224 14.10225 -5.262132 1.546298 20.58921 1.662081 -0.8128188 -20.15009 4.873629 -3.839248 -30.39476 11.64656 88.71862 14.10172 -7.915381 -0 0 28.17132 -24.90168 16.49373 17.04312 2.317246 -20.13426 -6.418249 -95.62786 16.46581 35.27206 0 0 -7.686682 1.383635 15.30834 10.65215
-1346.243 103.4288 -9.522688 4.201545 8.087908 163.7098 6.947475 17.88044 -0.3304502 -0 11.96831 -0 -8.502244 -13.8883 -1.523537 4.600297 -18.57857 -3.445984 -0 8.709248 -0 -0.03851974 -2.956774 16.02872 1.772227 -3.14287 6.574693 0.4574668 14.40559 -5.437799 1.582262 20.31335 1.62147 -0.9387168 -20.667 5.152987 -3.60323 -30.9952 11.60297 88.5451 14.22859 -7.708305 -0 0 29.0505 -24.84785 16.40408 17.0557 2.662898 -19.84618 -5.872194 -96.29143 15.11318 35.95813 0 0 -5.167579 3.069378 15.31511 8.099997
-1345.562 102.6494 -15.42196 4.158996 7.926732 163.0344 6.602679 18.33922 0.3868264 -0 12.70795 -0 -7.829092 -13.18397 -1.268677 3.642459 -17.33111 -4.463193 -0 7.799917 -0 0.8744011 -2.794539 17.34513 1.608776 -3.675677 6.891152 0.6191118 14.91339 -5.626684 1.655596 20.11979 1.638348 -0.9529984 -21.17191 5.464498 -3.310614 -31.33688 11.7068 88.64832 14.65694 -7.998907 -0 0 29.26665 -24.59707 16.16161 16.71021 3.034227 -19.84156 -5.462809 -96.59224 13.55757 36.0994 0 0 -3.335358 5.342481 15.29126 5.00698
-1344.916 101.9528 -21.19416 4.008539 7.814541 162.3015 6.183611 18.19778 1.270995 -0 13.68737 -0 -7.30095 -12.30407 -1.130689 2.553388 -16.08742 -5.522458 -0 8.015689 -0 2.163515 -2.6611 18.69452 1.370416 -4.156976 7.27313 0.7334215 15.53301 -5.833224 1.725577 19.94565 1.692014 -0.9110111 -21.63269 5.766903 -2.937333 -31.54102 11.92536 88.86614 15.36498 -8.562655 -0 0 29.12031 -24.16436 15.90491 16.16361 3.373453 -20.0465 -5.164818 -96.5857 11.93681 35.92882 0 0 -2.266652 7.884614 15.15704 1.77957
-1344.309 101.3521 -26.76632 3.790203 7.682784 161.5259 5.748549 17.53801 2.270684 -0 14.87276 -0 -6.877374 -11.47773 -1.0804 1.441037 -14.87716 -6.572627 -0 8.707961 -0 3.743275 -2.557337 20.03043 1.088885 -4.593951 7.6784 0.8229561 16.19135 -6.065112 1.775565 19.76745 1.777093 -0.8396255 -22.05413 6.054325 -2.475171 -31.65505 12.22096 89.10031 16.33685 -9.275337 -0 0 28.77289 -23.56263 15.67786 15.49099 3.675382 -20.39154 -4.928409 -96.35229 10.32888 35.56391 0 0 -1.847884 10.54145 14.88495 -1.42748
-1343.741 100.8475 -32.08612 3.524763 7.48853 160.7221 5.33146 16.4405 3.336119 -0 16.22005 -0 -6.526381 -10.81281 -1.086031 0.3449858 -13.68713 -7.612668 -0 9.524844 -0 5.520035 -2.487535 21.34333 0.7796663 -4.992605 8.076115 0.9056208 16.82768 -6.321649 1.80157 19.58644 1.897595 -0.7472389 -22.45064 6.335184 -1.929915 -31.68402 12.55678 89.29903 17.55394 -10.06861 -0 0 28.29772 -22.80291 15.47258 14.727 3.952799 -20.81685 -4.708085 -95.96538 8.798051 35.05483 0 0 -1.931659 13.2197 14.47121 -4.540438
-1343.217 100.4339 -37.11684 3.220601 7.210637 159.9044 4.948443 14.97103 4.42224 -0 17.70501 -0 -6.226789 -10.34794 -1.119901 -0.7264853 -12.48706 -8.661961 -0 10.27738 -0 7.404942 -2.465487 22.63223 0.4489404 -5.354229 8.441999 0.9917555 17.39178 -6.595225 1.805136 19.41584 2.061476 -0.6327496 -22.83575 6.621782 -1.315099 -31.61433 12.90026 89.43982 18.98985 -10.9052 -0 0 27.72231 -21.89482 15.26006 13.88702 4.222426 -21.27365 -4.470438 -95.48461 7.40657 34.41694 0 0 -2.387789 15.84875 13.92899 -7.507385
-1342.739 100.1055 -41.83226 2.87977 6.841929 159.088 4.605376 13.1726 5.490266 -0 19.32591 -0 -5.965664 -10.08981 -1.160686 -1.776124 -11.23841 -9.746435 -0 10.85927 -0 9.317833 -2.515916 23.89468 0.09851848 -5.675328 8.754812 1.085765 17.84092 -6.874666 1.789585 19.27339 2.277838 -0.4908371 -23.21901 6.925961 -0.6465799 -31.42539 13.22369 89.51537 20.61229 -11.76527 -0 0 27.05285 -20.84515 15.00614 12.97701 4.499469 -21.72262 -4.19363 -94.95618 6.219624 33.64773 0 0 -3.116213 18.36535 13.28687 -10.27722
